<svg class="svgIcons" xmlns="http://www.w3.org/2000/svg" viewBox="0 0 141.73 141.73"><defs><style>.cls-1{fill:white;}</style></defs><title>dinero</title><path class="cls-1" d="M72,67.36" transform="translate(0 1.21)"/><path class="cls-1" d="M70.86-1.21a70.86,70.86,0,1,0,70.86,70.86A70.95,70.95,0,0,0,70.86-1.21Zm0,130.8A59.93,59.93,0,1,1,130.8,69.65,60,60,0,0,1,70.86,129.59Z" transform="translate(0 1.21)"/><path class="cls-1" d="M71.66,61.92C65,61.36,57.07,59.13,56.91,51.68A9.22,9.22,0,0,1,59.71,45C62.51,42.15,67,40.51,72,40.51c9.38,0,13.65,5.25,13.65,10.12a5.47,5.47,0,0,0,10.93,0c0-9.2-6.54-18.5-19.09-20.61v-5a5.47,5.47,0,0,0-10.93,0v5A26.71,26.71,0,0,0,51.9,37.37,20.1,20.1,0,0,0,46,51.91c.25,11.81,9.51,19.62,24.94,20.91,10.22.52,17.14,5.69,16.82,12.57-.3,6.33-6.76,10.92-15.38,10.92-8.35,0-16.79-3.65-16.79-11.82a5.47,5.47,0,1,0-10.93,0c0,11.74,8.75,20.37,21.9,22.33v6a5.47,5.47,0,0,0,10.93,0v-6c12-1.83,20.67-10.08,21.18-21C99.18,74.69,90,62.85,71.66,61.92Z" transform="translate(0 1.21)"/></svg>