<?xml version="1.0" encoding="UTF-8" standalone="no"?>
<svg
   xmlns:dc="http://purl.org/dc/elements/1.1/"
   xmlns:cc="http://creativecommons.org/ns#"
   xmlns:rdf="http://www.w3.org/1999/02/22-rdf-syntax-ns#"
   xmlns:svg="http://www.w3.org/2000/svg"
   xmlns="http://www.w3.org/2000/svg"
   height="22"
   width="22"
   id="svg232"
   version="1.1"
   viewBox="0 0 22.000001 22.000001"
   class="svgIcons">
  <metadata
     id="metadata236">
    <rdf:RDF>
      <cc:Work
         rdf:about="">
        <dc:format>image/svg+xml</dc:format>
        <dc:type
           rdf:resource="http://purl.org/dc/dcmitype/StillImage" />
        <dc:title>dinero</dc:title>
      </cc:Work>
    </rdf:RDF>
  </metadata>
  <defs
     id="defs222">
    <style
       id="style220">.cls-1{fill:white;}</style>
  </defs>
  <title
     id="title224">dinero</title>
  <path
     style="fill:#ffffff;stroke-width:0.15523568"
     id="path226"
     d="M 11.176969,10.64451"
     class="cls-1" />
  <path
     style="fill:#ffffff;stroke-width:0.15523568"
     id="path228"
     d="M 11,0 A 11,11 0 1 0 22,11 11.013971,11.013971 0 0 0 11,0 Z m 0,20.30483 A 9.3032741,9.3032741 0 1 1 20.304826,11 9.3141406,9.3141406 0 0 1 11,20.30483 Z"
     class="cls-1" />
  <path
     style="fill:#ffffff;stroke-width:0.15523568"
     id="path230"
     d="M 11.124189,9.80003 C 10.090319,9.71313 8.8593,9.36692 8.8344623,8.21041 A 1.4312729,1.4312729 0 0 1 9.2691222,7.17344 C 9.7037821,6.73102 10.40079,6.47643 11.176969,6.47643 c 1.45611,0 2.118967,0.81499 2.118967,1.57099 a 0.84913915,0.84913915 0 0 0 1.696726,0 c 0,-1.42817 -1.015242,-2.87186 -2.963449,-3.19941 V 4.07183 a 0.84913915,0.84913915 0 0 0 -1.696726,0 V 4.84801 A 4.1463449,4.1463449 0 0 0 8.0567316,5.98899 3.1202371,3.1202371 0 0 0 7.1408411,8.24612 c 0.038809,1.83333 1.4762913,3.04572 3.8715779,3.24598 1.586508,0.0807 2.660739,0.88329 2.611064,1.95131 -0.04657,0.98264 -1.049393,1.69517 -2.387525,1.69517 -1.2962177,0 -2.6064068,-0.56661 -2.6064068,-1.83488 a 0.84913915,0.84913915 0 1 0 -1.6967259,0 c 0,1.82246 1.3583122,3.16215 3.3996617,3.46641 v 0.93141 a 0.84913915,0.84913915 0 0 0 1.696726,0 v -0.93141 c 1.862828,-0.28408 3.208721,-1.56478 3.287891,-3.25995 0.07917,-1.72777 -1.345893,-3.56576 -4.192915,-3.71013 z"
     class="cls-1" />
</svg>
