<svg id="iconos" xmlns="http://www.w3.org/2000/svg" viewBox="0 0 96.12 140.95"><defs><style>.cls-1{fill:white;}</style></defs><title>localizacion</title><path class="cls-1" d="M71.1,26.55A21.81,21.81,0,1,0,92.92,48.36,21.84,21.84,0,0,0,71.1,26.55Zm0,34.78a13,13,0,1,1,13-13A13,13,0,0,1,71.1,61.34Z" transform="translate(-23.44)"/><path class="cls-1" d="M119.36,43.2A48.26,48.26,0,0,0,71.1,0,47.72,47.72,0,0,0,23.44,47.66a54.82,54.82,0,0,0,2.7,16.73,52.83,52.83,0,0,0,4.48,10l.2.36,0,0,36.31,63.88A4.42,4.42,0,0,0,71,141h0a4.42,4.42,0,0,0,3.81-2.18c.33-.56,32.67-55.63,34.29-58.34,2.92-4.54,7-13,8.3-18.25C119.31,54.69,119.93,48.66,119.36,43.2ZM108.83,60a69.78,69.78,0,0,1-7.24,15.76c-1.38,2.29-21.79,37.06-30.53,51.93L38.54,70.48l-.21-.37a44,44,0,0,1-3.76-8.37,46.12,46.12,0,0,1-2.29-14.06A38.87,38.87,0,0,1,71.1,8.84c22.39,0,37.65,17.93,39.46,35.28C111,48.51,110.47,53.56,108.83,60Z" transform="translate(-23.44)"/></svg>