<?xml version="1.0" encoding="UTF-8" standalone="no"?>
<svg
   xmlns:dc="http://purl.org/dc/elements/1.1/"
   xmlns:cc="http://creativecommons.org/ns#"
   xmlns:rdf="http://www.w3.org/1999/02/22-rdf-syntax-ns#"
   xmlns:svg="http://www.w3.org/2000/svg"
   xmlns="http://www.w3.org/2000/svg"
   xmlns:sodipodi="http://sodipodi.sourceforge.net/DTD/sodipodi-0.dtd"
   xmlns:inkscape="http://www.inkscape.org/namespaces/inkscape"
   id="iconos"
   viewBox="0 0 15.999999 22.000004"
   version="1.1"
   sodipodi:docname="localizacion.svg"
   width="15.999999"
   height="22.000004"
   inkscape:version="0.92.2 (unknown)">
  <metadata
     id="metadata65">
    <rdf:RDF>
      <cc:Work
         rdf:about="">
        <dc:format>image/svg+xml</dc:format>
        <dc:type
           rdf:resource="http://purl.org/dc/dcmitype/StillImage" />
        <dc:title>localizacion</dc:title>
      </cc:Work>
    </rdf:RDF>
  </metadata>
  <sodipodi:namedview
     pagecolor="#ffffff"
     bordercolor="#666666"
     borderopacity="1"
     objecttolerance="10"
     gridtolerance="10"
     guidetolerance="10"
     inkscape:pageopacity="0"
     inkscape:pageshadow="2"
     inkscape:window-width="1533"
     inkscape:window-height="845"
     id="namedview63"
     showgrid="false"
     fit-margin-top="0"
     fit-margin-left="0"
     fit-margin-right="0"
     fit-margin-bottom="0"
     inkscape:zoom="4.7108905"
     inkscape:cx="14.176103"
     inkscape:cy="13.10661"
     inkscape:window-x="67"
     inkscape:window-y="27"
     inkscape:window-maximized="1"
     inkscape:current-layer="iconos" />
  <defs
     id="defs54">
    <style
       id="style52">.cls-1{fill:white;}</style>
  </defs>
  <title
     id="title56">localizacion</title>
  <path
     class="cls-1"
     d="m 7.933135,4.1426443 a 3.6303329,3.4029614 0 1 0 3.631997,3.40296 3.6353265,3.4076423 0 0 0 -3.631997,-3.40296 z m 0,5.42664 a 2.1638848,2.0283585 0 1 1 2.163885,-2.02836 2.1638848,2.0283585 0 0 1 -2.163885,2.02992 z"
     id="path58"
     inkscape:connector-curvature="0"
     style="fill:#ffffff;stroke-width:0.16115585" />
  <path
     class="cls-1"
     d="M 15.966141,6.7405043 A 8.0330065,7.5298912 0 0 0 7.933135,1.1431241e-4 7.9431222,7.4456363 0 0 0 0,7.4363943 9.124936,8.5534318 0 0 0 0.449422,10.046723 8.7936953,8.2429369 0 0 0 1.19513,11.607003 l 0.03329,0.0562 v 0 l 6.043897,9.96705 a 0.73572087,0.68964189 0 0 0 0.644171,0.36975 v 0 a 0.73572087,0.68964189 0 0 0 0.634185,-0.34014 c 0.05493,-0.0874 5.438009,-8.67982 5.707663,-9.10265 0.486041,-0.70836 1.165168,-2.02836 1.381557,-2.8474987 0.317924,-1.17645 0.421125,-2.1173 0.326248,-2.96921 z m -1.752747,2.62127 a 11.615068,10.887604 0 0 1 -1.205117,2.4589887 c -0.229705,0.3573 -3.627004,5.78239 -5.081801,8.10251 l -5.413041,-8.92634 -0.03495,-0.0577 a 7.3239178,6.8652134 0 0 1 -0.625862,-1.3059687 7.6767978,7.1959918 0 0 1 -0.381176,-2.19376 6.4700156,6.0647919 0 0 1 6.461692,-6.0601 c 3.726876,0 6.266944,2.79757 6.568223,5.50465 0.07324,0.68496 -0.01498,1.4729 -0.287963,2.47772 z"
     id="path60"
     inkscape:connector-curvature="0"
     style="fill:#ffffff;stroke-width:0.16115585" />
</svg>
