<svg id="iconos" xmlns="http://www.w3.org/2000/svg" viewBox="0 0 126.17 141.71"><defs><style>.cls-1{fill:white;}</style></defs><title>usuario</title><path class="cls-1" d="M104.63,72.35c-10.34,0-30.32.09-46.16.17-10.51.05-19.2.09-21.91.09h0A26,26,0,0,0,17.86,80.3a35.3,35.3,0,0,0-10.08,24.8v31.09a5.51,5.51,0,0,0,5.51,5.51H128.44a5.51,5.51,0,0,0,5.51-5.51v-33C133.95,88.22,123.68,72.35,104.63,72.35Zm18.29,58.33H18.81V105.11a24,24,0,0,1,6.77-16.93,14.65,14.65,0,0,1,10.84-4.54c2.81.08,11.52,0,22.11-.09,15.82-.08,35.78-.17,46.11-.17,12.57,0,18.29,10.25,18.29,19.77Z" transform="translate(-7.78)"/><path class="cls-1" d="M70.87,65.69A32.84,32.84,0,1,0,38,32.84,32.88,32.88,0,0,0,70.87,65.69Zm0-54.66A21.82,21.82,0,1,1,49,32.84,21.84,21.84,0,0,1,70.87,11Z" transform="translate(-7.78)"/></svg>