<?xml version="1.0" encoding="UTF-8" standalone="no"?>
<svg
   xmlns:dc="http://purl.org/dc/elements/1.1/"
   xmlns:cc="http://creativecommons.org/ns#"
   xmlns:rdf="http://www.w3.org/1999/02/22-rdf-syntax-ns#"
   xmlns:svg="http://www.w3.org/2000/svg"
   xmlns="http://www.w3.org/2000/svg"
   height="21.999996"
   width="22"
   version="1.1"
   viewBox="0 0 22 21.999995"
   id="iconos">
  <metadata
     id="metadata434">
    <rdf:RDF>
      <cc:Work
         rdf:about="">
        <dc:format>image/svg+xml</dc:format>
        <dc:type
           rdf:resource="http://purl.org/dc/dcmitype/StillImage" />
        <dc:title>usuario</dc:title>
      </cc:Work>
    </rdf:RDF>
  </metadata>
  <defs
     id="defs423">
    <style
       id="style421">.cls-1{fill:white;}</style>
  </defs>
  <title
     id="title425">usuario</title>
  <path
     style="fill:#ffffff;stroke-width:0.16454124"
     id="path427"
     d="m 16.887539,11.232127 c -1.802963,0 -5.28683,0.014 -8.0488143,0.0264 -1.8326047,0.008 -3.3478602,0.014 -3.8203967,0.014 v 0 a 4.5335606,4.0369825 0 0 0 -3.2606763,1.19401 6.1551804,5.4809801 0 0 0 -1.757626589742,3.85066 v 4.8273 A 0.96076612,0.85552976 0 0 0 0.96079123,21.999997 H 21.039234 A 0.96076612,0.85552976 0 0 0 22,21.144467 v -5.12386 c 0,-2.32437 -1.790756,-4.78848 -5.112461,-4.78848 z m 3.189185,9.05681 H 1.923301 v -3.97022 a 4.1848252,3.7264454 0 0 1 1.1804695,-2.62869 2.5544871,2.2746844 0 0 1 1.890146,-0.70492 c 0.4899733,0.0124 2.0087161,0 3.8552703,-0.014 2.7584972,-0.0124 6.2388772,-0.0264 8.0400952,-0.0264 2.191802,0 3.189186,1.5915 3.189186,3.06966 z"
     class="cls-1" />
  <path
     style="fill:#ffffff;stroke-width:0.16454124"
     id="path429"
     d="M 11.000884,10.198037 A 5.7262358,5.0990195 0 1 0 5.2694175,5.0974569 5.7332105,5.1052302 0 0 0 11.000884,10.198037 Z m 0,-8.4869801 a 3.8047036,3.38796 0 1 1 -3.8134216,3.3864 3.8081909,3.3910653 0 0 1 3.8134216,-3.39106 z"
     class="cls-1" />
</svg>
