<?xml version="1.0" encoding="UTF-8" standalone="no"?>
<!-- Generator: Adobe Illustrator 21.0.0, SVG Export Plug-In . SVG Version: 6.00 Build 0)  -->

<svg
   xmlns:dc="http://purl.org/dc/elements/1.1/"
   xmlns:cc="http://creativecommons.org/ns#"
   xmlns:rdf="http://www.w3.org/1999/02/22-rdf-syntax-ns#"
   xmlns:svg="http://www.w3.org/2000/svg"
   xmlns="http://www.w3.org/2000/svg"
   xmlns:sodipodi="http://sodipodi.sourceforge.net/DTD/sodipodi-0.dtd"
   xmlns:inkscape="http://www.inkscape.org/namespaces/inkscape"
   version="1.1"
   id="Capa_1"
   x="0px"
   y="0px"
   viewBox="0 0 49.999999 49.999999"
   style="fill:#ffffff"
   xml:space="preserve"
   sodipodi:docname="google_mas.svg"
   width="50"
   height="50"
   inkscape:version="0.92.2 (unknown)"><metadata
     id="metadata4366"><rdf:RDF><cc:Work
         rdf:about=""><dc:format>image/svg+xml</dc:format><dc:type
           rdf:resource="http://purl.org/dc/dcmitype/StillImage" /><dc:title></dc:title></cc:Work></rdf:RDF></metadata><defs
     id="defs4364" /><sodipodi:namedview
     pagecolor="#ffffff"
     bordercolor="#666666"
     borderopacity="1"
     objecttolerance="10"
     gridtolerance="10"
     guidetolerance="10"
     inkscape:pageopacity="0"
     inkscape:pageshadow="2"
     inkscape:window-width="1533"
     inkscape:window-height="845"
     id="namedview4362"
     showgrid="false"
     fit-margin-top="0"
     fit-margin-left="0"
     fit-margin-right="0"
     fit-margin-bottom="0"
     inkscape:zoom="16.72544"
     inkscape:cx="19.85"
     inkscape:cy="19.949999"
     inkscape:window-x="67"
     inkscape:window-y="27"
     inkscape:window-maximized="1"
     inkscape:current-layer="Capa_1" /><g
     id="g4359"
     transform="scale(1.2562814)"><path
       d="M 17.2,23.2 C 17.1,23.1 16.9,23 16.8,22.9 16.4,22.8 16,22.7 15.5,22.7 h -0.1 c -2,0 -3.8,1.2 -3.8,2.6 0,1.5 1.5,2.7 3.4,2.7 2.5,0 3.8,-0.9 3.8,-2.6 0,-0.2 0,-0.3 -0.1,-0.5 0,-0.7 -0.6,-1.1 -1.5,-1.7 z m 0,0"
       id="path4353"
       inkscape:connector-curvature="0" /><path
       d="m 15.8,17.9 v 0 c 0.5,0 0.9,-0.2 1.2,-0.6 0.5,-0.6 0.7,-1.5 0.6,-2.5 -0.2,-1.8 -1.5,-3.2 -2.8,-3.2 h -0.1 c -0.5,0 -0.9,0.2 -1.2,0.6 -0.5,0.6 -0.7,1.4 -0.6,2.4 0.3,1.7 1.6,3.2 2.9,3.3 z m 0,0"
       id="path4355"
       inkscape:connector-curvature="0" /><path
       d="M 19.9,0 C 8.9,0 0,8.9 0,19.9 c 0,11 8.9,19.9 19.9,19.9 11,0 19.9,-8.9 19.9,-19.9 C 39.7,8.9 30.8,0 19.9,0 Z m -2.3,29.5 c -0.8,0.2 -1.6,0.3 -2.4,0.3 -0.9,0 -1.9,-0.1 -2.7,-0.3 C 10.9,29.1 9.6,28.3 9.1,27.3 8.9,26.9 8.7,26.4 8.7,25.9 c 0,-0.5 0.1,-1 0.4,-1.5 0.9,-1.9 3.3,-3.2 5.9,-3.2 v 0 c -0.2,-0.4 -0.3,-0.8 -0.3,-1.2 0,-0.2 0,-0.4 0.1,-0.6 C 12,19.3 10,17.3 10,14.7 10,12.8 11.5,11 13.7,10.2 14.3,10 15,9.9 15.6,9.9 h 5.9 c 0.2,0 0.4,0.1 0.4,0.3 0.1,0.2 0,0.4 -0.2,0.5 l -1.3,1 c -0.1,0.1 -0.2,0.1 -0.3,0.1 h -0.5 c 0.6,0.7 1,1.8 1,2.9 0,1.3 -0.7,2.5 -1.8,3.4 -0.9,0.7 -1,0.9 -1,1.3 0,0.2 0.7,1 1.4,1.5 1.6,1.2 2.3,2.3 2.3,4.2 -0.1,2 -1.6,3.8 -3.9,4.4 z M 30.9,19.4 c 0,0.3 -0.2,0.5 -0.5,0.5 H 27 v 3.4 c 0,0.3 -0.2,0.5 -0.5,0.5 h -1 C 25.2,23.8 25,23.6 25,23.3 v -3.4 h -3.4 c -0.3,0 -0.5,-0.2 -0.5,-0.5 v -1 c 0,-0.3 0.2,-0.5 0.5,-0.5 H 25 V 14.5 C 25,14.2 25.2,14 25.5,14 h 1 c 0.3,0 0.5,0.2 0.5,0.5 V 18 h 3.4 c 0.3,0 0.5,0.2 0.5,0.5 z m 0,0"
       id="path4357"
       inkscape:connector-curvature="0" /></g></svg>