<?xml version="1.0" encoding="utf-8"?>
<!-- Generator: Adobe Illustrator 21.0.0, SVG Export Plug-In . SVG Version: 6.00 Build 0)  -->
<svg version="1.1" id="Capa_1" xmlns="http://www.w3.org/2000/svg" xmlns:xlink="http://www.w3.org/1999/xlink" x="0px" y="0px"
	 viewBox="0 0 39.7 39.7" style="fill: #ffffff " xml:space="preserve">
<g>
	<path d="M17.2,23.2c-0.1-0.1-0.3-0.2-0.4-0.3c-0.4-0.1-0.8-0.2-1.3-0.2h-0.1c-2,0-3.8,1.2-3.8,2.6c0,1.5,1.5,2.7,3.4,2.7
		c2.5,0,3.8-0.9,3.8-2.6c0-0.2,0-0.3-0.1-0.5C18.7,24.2,18.1,23.8,17.2,23.2L17.2,23.2z M17.2,23.2"/>
	<path d="M15.8,17.9L15.8,17.9c0.5,0,0.9-0.2,1.2-0.6c0.5-0.6,0.7-1.5,0.6-2.5c-0.2-1.8-1.5-3.2-2.8-3.2l-0.1,0
		c-0.5,0-0.9,0.2-1.2,0.6c-0.5,0.6-0.7,1.4-0.6,2.4C13.2,16.3,14.5,17.8,15.8,17.9L15.8,17.9z M15.8,17.9"/>
	<path d="M19.9,0C8.9,0,0,8.9,0,19.9c0,11,8.9,19.9,19.9,19.9c11,0,19.9-8.9,19.9-19.9C39.7,8.9,30.8,0,19.9,0L19.9,0z M17.6,29.5
		c-0.8,0.2-1.6,0.3-2.4,0.3c-0.9,0-1.9-0.1-2.7-0.3c-1.6-0.4-2.9-1.2-3.4-2.2c-0.2-0.4-0.4-0.9-0.4-1.4c0-0.5,0.1-1,0.4-1.5
		c0.9-1.9,3.3-3.2,5.9-3.2H15c-0.2-0.4-0.3-0.8-0.3-1.2c0-0.2,0-0.4,0.1-0.6c-2.8-0.1-4.8-2.1-4.8-4.7c0-1.9,1.5-3.7,3.7-4.5
		c0.6-0.2,1.3-0.3,1.9-0.3h5.9c0.2,0,0.4,0.1,0.4,0.3c0.1,0.2,0,0.4-0.2,0.5l-1.3,1c-0.1,0.1-0.2,0.1-0.3,0.1h-0.5
		c0.6,0.7,1,1.8,1,2.9c0,1.3-0.7,2.5-1.8,3.4c-0.9,0.7-1,0.9-1,1.3c0,0.2,0.7,1,1.4,1.5c1.6,1.2,2.3,2.3,2.3,4.2
		C21.4,27.1,19.9,28.9,17.6,29.5L17.6,29.5z M30.9,19.4c0,0.3-0.2,0.5-0.5,0.5h-3.4v3.4c0,0.3-0.2,0.5-0.5,0.5h-1
		c-0.3,0-0.5-0.2-0.5-0.5v-3.4h-3.4c-0.3,0-0.5-0.2-0.5-0.5v-1c0-0.3,0.2-0.5,0.5-0.5h3.4v-3.4c0-0.3,0.2-0.5,0.5-0.5h1
		c0.3,0,0.5,0.2,0.5,0.5V18h3.4c0.3,0,0.5,0.2,0.5,0.5V19.4z M30.9,19.4"/>
</g>
</svg>
