<?xml version="1.0" encoding="UTF-8" standalone="no"?>
<!-- Generator: Adobe Illustrator 21.0.0, SVG Export Plug-In . SVG Version: 6.00 Build 0)  -->

<svg
   xmlns:dc="http://purl.org/dc/elements/1.1/"
   xmlns:cc="http://creativecommons.org/ns#"
   xmlns:rdf="http://www.w3.org/1999/02/22-rdf-syntax-ns#"
   xmlns:svg="http://www.w3.org/2000/svg"
   xmlns="http://www.w3.org/2000/svg"
   xmlns:sodipodi="http://sodipodi.sourceforge.net/DTD/sodipodi-0.dtd"
   xmlns:inkscape="http://www.inkscape.org/namespaces/inkscape"
   version="1.1"
   id="Layer_1"
   x="0px"
   y="0px"
   viewBox="0 0 49.999998 49.999998"
   xml:space="preserve"
   sodipodi:docname="instagram.svg"
   width="50"
   height="50"
   inkscape:version="0.92.2 (unknown)"><metadata
     id="metadata4433"><rdf:RDF><cc:Work
         rdf:about=""><dc:format>image/svg+xml</dc:format><dc:type
           rdf:resource="http://purl.org/dc/dcmitype/StillImage" /><dc:title></dc:title></cc:Work></rdf:RDF></metadata><defs
     id="defs4431" /><sodipodi:namedview
     pagecolor="#ffffff"
     bordercolor="#666666"
     borderopacity="1"
     objecttolerance="10"
     gridtolerance="10"
     guidetolerance="10"
     inkscape:pageopacity="0"
     inkscape:pageshadow="2"
     inkscape:window-width="1533"
     inkscape:window-height="845"
     id="namedview4429"
     showgrid="false"
     fit-margin-top="0"
     fit-margin-left="0"
     fit-margin-right="0"
     fit-margin-bottom="0"
     inkscape:zoom="7.3942091"
     inkscape:cx="44.900002"
     inkscape:cy="44.899998"
     inkscape:window-x="67"
     inkscape:window-y="27"
     inkscape:window-maximized="1"
     inkscape:current-layer="Layer_1" /><style
     type="text/css"
     id="style4418">
	.st0{fill:#ffffff;}
</style><g
     id="g4426"
     transform="scale(0.55679287)"><path
       class="st0"
       d="M 58.3,23.9 H 31.5 c -4.3,0 -7.7,3.5 -7.7,7.7 v 26.8 c 0,4.3 3.5,7.7 7.7,7.7 h 26.8 c 4.3,0 7.7,-3.5 7.7,-7.7 V 31.6 c 0,-4.2 -3.5,-7.7 -7.7,-7.7 z m -13.4,35 C 37.2,58.9 31,52.7 31,45 c 0,-7.7 6.2,-13.9 13.9,-13.9 7.7,0 13.9,6.2 13.9,13.9 0,7.7 -6.3,13.9 -13.9,13.9 z M 59.2,34 c -1.8,0 -3.3,-1.5 -3.3,-3.3 0,-1.8 1.5,-3.3 3.3,-3.3 1.8,0 3.3,1.5 3.3,3.3 0,1.8 -1.5,3.3 -3.3,3.3 z"
       id="path4420"
       inkscape:connector-curvature="0"
       style="fill:#ffffff" /><path
       class="st0"
       d="m 44.9,37 c -4.4,0 -8,3.6 -8,8 0,4.4 3.6,8 8,8 4.4,0 8,-3.6 8,-8 0,-4.4 -3.6,-8 -8,-8 z"
       id="path4422"
       inkscape:connector-curvature="0"
       style="fill:#ffffff" /><path
       class="st0"
       d="M 44.9,0 C 20.1,0 0,20.1 0,44.9 0,69.7 20.1,89.8 44.9,89.8 69.7,89.8 89.8,69.7 89.8,44.9 89.8,20.1 69.7,0 44.9,0 Z m 27,58.4 C 71.9,65.9 65.8,72 58.3,72 H 31.5 C 24,72 17.9,65.9 17.9,58.4 V 31.6 C 17.9,24.1 24,18 31.5,18 h 26.8 c 7.5,0 13.6,6.1 13.6,13.6 z"
       id="path4424"
       inkscape:connector-curvature="0"
       style="fill:#ffffff" /></g></svg>