<?xml version="1.0" encoding="utf-8"?>
<!-- Generator: Adobe Illustrator 21.0.0, SVG Export Plug-In . SVG Version: 6.00 Build 0)  -->
<svg version="1.1" id="Capa_1" xmlns="http://www.w3.org/2000/svg" xmlns:xlink="http://www.w3.org/1999/xlink" x="0px" y="0px"
	 viewBox="0 0 1629.5 639.3" style="enable-background:new 0 0 1629.5 639.3;" xml:space="preserve">
<style type="text/css">
	.st0{fill:#FFFFFF;}
</style>
<path class="st0" d="M249.1,204.6c0,0,108.5,35.3,181.1-10.4c0,0,65.7-62.2,120.3-81.6c0,0,123.7-51.2,210.2,18
	c0,0,29.2,28,35.9,34.7c0,0,24.9,30.6,63.8-2.1c0,0,83-72.6,103.2-83.5c0,0,53.9-36.3,140,8.3c0,0,71.6,40.4,94.4,49.8
	c0,0,98.5,47.2,189.3-6.7c0,0-32.7,67.4-158.1,43.6c0,0-57.6-4.7-121.3-21.8c0,0-68.4-24.9-99.6-1c0,0-26.4,16.1-5.2,28
	c0,0,20.2,11.9,25.9,17.1c0,0,14,10.9,1.6,16.1c0,0-18.7,3.6-22.3,5.7c0,0-65.8,36.3-106.3,41c0,0-89.7,15.6-162.3,4.1
	c0,0-60.1-6.7-75.7-12.4c0,0-28.5-9.3-64.3,5.2c0,0-34.2,13-35.8,17.1c0,0-7.8,0.5-22.8-15c0,0-28.5-20.2,0-22.3
	c0,0,75.2-2.1,104.7-15.6c0,0,36.8-8.8,50.3-29c0,0-30.1-48.2-111-30.1c0,0-36.3,3.6-112,47.2c0,0-40.4,25.9-113,25.9
	C360.1,234.9,293.2,237.6,249.1,204.6z"/>
<g>
	<path class="st0" d="M435.5,453c-9.6,7-19.7,12.2-30.4,15.5c-10.7,3.4-22.4,5-35.2,5c-24.5,0-44.6-7.3-60.3-22
		c-15.7-14.6-23.5-33.6-23.5-57c0-23.2,7.8-42,23.3-56.4c15.5-14.4,35.8-21.6,60.9-21.6c11.2,0,21.9,1.4,32.1,4.2
		c10.2,2.8,19.8,7.1,28.8,12.7l-8,27.6l-2.1-0.4c-3.6-13.3-9.4-23.1-17.3-29.5c-7.9-6.4-18.1-9.6-30.8-9.6c-19.4,0-34.7,6.7-45.9,20
		c-11.2,13.3-16.8,31.7-16.8,55.1c0,21.4,5.8,38.7,17.4,52c11.6,13.3,26.6,19.9,45,19.9c13.6,0,25-3.9,34.1-11.7
		c9.1-7.8,15-18.7,17.7-32.7l2.1-0.3L435.5,453z"/>
	<path class="st0" d="M577.8,469.4c-1.6-3.8-3.2-7.6-4.7-11.4c-1.5-3.8-3-7.7-4.4-11.7l-6.1-17.3c-4.7-13.4-11.2-22.8-19.6-28.2
		c-8.3-5.4-23.1-8-44.2-8c-1.9,0-4.5,0.1-7.9,0.3c-3.4,0.2-5.8,0.3-7.3,0.4v24.2c0,20.3,1.1,33.3,3.2,39.2
		c2.1,5.8,6.3,9.6,12.5,11.2l-0.1,1.8c-5-0.2-9.6-0.4-13.9-0.5c-4.3-0.1-8.3-0.2-12.1-0.2c-3.9,0-7.9,0.1-12,0.2
		c-4.1,0.1-8.2,0.3-12.4,0.5l-0.1-1.8c6-1.6,10-5,12.1-10.4c2.1-5.4,3.2-18.7,3.2-39.9v-69.9c0-10.1-0.9-16.7-2.7-19.6
		c-1.8-2.9-5.1-4.8-9.8-5.6v-1.8c4.8,0.1,9.7,0.1,14.7,0.2c5,0,11.8,0.1,20.3,0.1h24c16.6,0,28.6,0.3,35.9,0.8
		c7.3,0.5,13.4,1.4,18,2.7c9.6,2.6,17,6.7,22.1,12.2c5.1,5.5,7.7,12,7.7,19.6c0,10.9-5,19.6-14.9,25.9c-9.9,6.3-23.8,9.7-41.7,10.1
		c12,1.4,21.8,4.6,29.5,9.5c7.7,4.9,13.5,11.8,17.4,20.7c1.9,4.3,4.4,10.4,7.3,18.1c6.2,16.3,12.4,25.3,18.8,26.8v2.2
		c-3.1,0-6.7,0-10.9-0.1c-4.2-0.1-6.9-0.1-8.1-0.1c-2.2,0-4.4,0-6.6,0.1C582.6,469.3,580.3,469.3,577.8,469.4 M483.5,387.3
		c2.2,0.1,4.7,0.2,7.4,0.3c2.7,0.1,4.2,0.2,4.5,0.2c31,0,51.3-2.3,60.9-7c9.6-4.7,14.4-12.7,14.4-24.2c0-10.4-4.7-18-14.2-23
		c-9.5-5-24.3-7.4-44.4-7.4c-4.5,0-9.1,0-13.7,0.1c-4.6,0.1-9.6,0.2-14.9,0.3V387.3z"/>
	<path class="st0" d="M619.5,320.7c3.9,0.1,8.3,0.1,13.1,0.2c4.8,0,12.1,0.1,21.9,0.1h90.2l11.6,32.3l-1.6,0.7
		c-8-10.1-17-17.3-27.1-21.4c-10.1-4.2-26.2-6.3-48.4-6.3h-14c-1.9,0-3.9,0-6.1,0.1c-2.2,0-4.6,0.1-7.1,0.2v60.9
		c1.9,0.1,4.6,0.2,7.9,0.3c3.3,0.1,5.3,0.2,6.1,0.2h25.5c12.1,0,21.1-1.5,27.1-4.6c6-3.1,10.4-8.2,13.3-15.5h1.3v45.7h-1.3
		c-2.7-7.2-7.1-12.4-13.3-15.6c-6.2-3.2-15.3-4.7-27.1-4.7h-27.5h-6.1c-0.1,0-0.9,0.1-2.2,0.2c-1.3,0.1-2.5,0.2-3.5,0.3l-0.1,32.5
		c0,11.3,0.1,18.7,0.4,22.2c0.3,3.5,0.7,6,1.3,7.5c1.1,3.1,3.4,5.3,6.8,6.5c3.4,1.2,11,1.8,22.7,1.8c22.7,0,39.8-2.3,51.3-6.9
		c11.5-4.6,21.2-12.3,29-23.1l1.3,0.2l-11.6,35H641.4h-7.7c-2.4,0-5,0-7.8,0.1c-2.8,0-5.8,0.1-9,0.2v-1.8c6-1.1,10-4.4,12.1-9.9
		c2.1-5.5,3.2-18.8,3.2-40v-76.2c0-6-1-10.5-3.1-13.5c-2.1-3.1-5.3-4.9-9.7-5.5V320.7z"/>
	<path class="st0" d="M766.6,469.9v-1.3c5.2-3.3,11-9.3,17.3-18.2c6.3-8.8,12.7-19.8,19.2-32.9l49.7-100.9h1.6l52.8,101.8
		c9.9,19.2,17.1,31.9,21.7,38c4.5,6.1,8.9,10.2,13.2,12.1l-0.1,1.3c-3.9-0.2-7.5-0.4-10.8-0.5c-3.3-0.1-6.4-0.2-9.1-0.2
		c-3.7,0-8.3,0.1-13.8,0.2c-5.5,0.1-11.7,0.3-18.8,0.5v-1.3c3.7-1.3,6.4-2.9,7.9-4.6c1.6-1.7,2.3-4,2.3-6.9c0-2.5-0.9-6.2-2.6-10.9
		c-1.8-4.7-5.4-12.9-10.9-24.5l-9.4-19.9c-2-0.1-4.1-0.3-6.2-0.3c-2.1-0.1-4.7-0.1-7.8-0.1h-31.4c-3.7,0-6.6,0-8.5,0.1
		c-2,0.1-3.8,0.2-5.5,0.3l-8,17.7c-3.7,8-6.4,14.6-8.2,19.9c-1.8,5.3-2.7,9.5-2.7,12.5c0,4.2,1.1,7.7,3.3,10.3
		c2.2,2.6,5.8,4.8,10.7,6.4v1.3c-2.5-0.2-5.1-0.4-8-0.5c-2.9-0.1-7.3-0.2-13.2-0.2c-5.5,0-10.1,0.1-13.8,0.2
		C773.8,469.5,770.2,469.6,766.6,469.9 M820.9,395.6c1.9,0.1,3.9,0.3,6.1,0.3c2.2,0.1,5.6,0.1,10.1,0.1h19.7c4.5,0,7.9,0,10.3-0.1
		c2.4-0.1,4.7-0.2,6.8-0.3l-26.5-55.2L820.9,395.6z"/>
	<path class="st0" d="M922.5,353.4l10.3-32.5h133.8l10.5,32.5l-2.2,0.4c-7.2-9-15.1-15.9-23.6-20.7c-8.5-4.8-17.1-7.2-25.8-7.2
		c-6.4,0-10.7,1.3-12.8,4c-2.2,2.7-3.2,9.5-3.2,20.4v9.6v50.4c0,23.2,1.1,38,3.3,44.5c2.2,6.5,6.6,10.7,13,12.7v2.5
		c-3.9-0.3-7.9-0.5-12-0.7c-4-0.1-9.2-0.2-15.5-0.2c-6.6,0-11.6,0.1-15,0.2c-3.4,0.2-6.6,0.4-9.7,0.7v-2.5
		c6.3-1.7,10.6-5.8,12.8-12.2c2.2-6.4,3.4-21.4,3.4-45v-60.7c0-10.6-1-17.2-3-19.8c-2-2.6-5.9-4-11.7-4c-9.1,0-18,2.4-26.6,7.2
		c-8.6,4.8-16.6,11.8-24,20.9L922.5,353.4z"/>
	<path class="st0" d="M1083,321.8V320h1.3c9.8,0.6,17,0.9,21.6,0.9c3.8,0,10.1-0.2,18.8-0.7c1.8-0.1,3.1-0.2,3.9-0.2v1.8
		c-4.6,1-8,2.9-10,5.8c-2,2.9-3.1,7.1-3.1,12.6v50.3c0,12.4,0.3,22.6,1,30.5s1.7,13.8,3.1,17.9c2.9,8.8,8.4,15.6,16.6,20.4
		c8.2,4.8,18.3,7.2,30.3,7.2c18.2,0,31.8-4.6,40.8-13.9c8.9-9.2,13.4-23.3,13.4-42.2v-23.4c0-25.7-1.4-42.2-4.1-49.5
		c-2.8-7.3-7.8-12.5-15.1-15.8V320c4.2,0.3,8,0.5,11.6,0.7c3.5,0.2,6.7,0.2,9.6,0.2c4.5,0,8.7-0.1,12.6-0.2
		c3.9-0.1,7.7-0.4,11.4-0.7v1.8c-7.7,3.2-13,9-15.9,17.4c-2.9,8.4-4.4,24.4-4.4,47.9v22.1c0,21.5-5.2,37.6-15.5,48.2
		c-10.3,10.6-26,15.9-47,15.9c-12.1,0-22.8-1.3-31.9-4c-9.1-2.6-16.5-6.5-22.1-11.6c-5.2-4.8-8.9-10.7-11.1-17.9
		c-2.2-7.2-3.3-18.4-3.3-33.8c0-3.1,0.1-9.1,0.2-18c0.1-8.9,0.2-16.3,0.2-22.1v-25.8c0-5.2-1-9.3-3.1-12.1
		C1091,325.2,1087.7,323.1,1083,321.8"/>
	<path class="st0" d="M1379.8,469.4c-1.6-3.8-3.2-7.6-4.7-11.4c-1.5-3.8-3-7.7-4.4-11.7l-6.1-17.3c-4.7-13.4-11.2-22.8-19.6-28.2
		c-8.3-5.4-23.1-8-44.2-8c-1.9,0-4.5,0.1-7.9,0.3c-3.4,0.2-5.8,0.3-7.3,0.4v24.2c0,20.3,1.1,33.3,3.2,39.2
		c2.1,5.8,6.3,9.6,12.5,11.2l-0.1,1.8c-5-0.2-9.6-0.4-13.9-0.5c-4.3-0.1-8.3-0.2-12.1-0.2c-3.9,0-7.9,0.1-12,0.2
		c-4.1,0.1-8.2,0.3-12.4,0.5l-0.1-1.8c6-1.6,10-5,12.1-10.4c2.1-5.4,3.2-18.7,3.2-39.9v-69.9c0-10.1-0.9-16.7-2.7-19.6
		c-1.8-2.9-5.1-4.8-9.8-5.6v-1.8c4.8,0.1,9.7,0.1,14.7,0.2c5,0,11.8,0.1,20.3,0.1h24c16.6,0,28.6,0.3,35.9,0.8
		c7.3,0.5,13.4,1.4,18,2.7c9.6,2.6,17,6.7,22.1,12.2c5.1,5.5,7.7,12,7.7,19.6c0,10.9-5,19.6-14.9,25.9c-9.9,6.3-23.8,9.7-41.7,10.1
		c12,1.4,21.8,4.6,29.5,9.5c7.7,4.9,13.5,11.8,17.4,20.7c1.9,4.3,4.4,10.4,7.3,18.1c6.2,16.3,12.4,25.3,18.8,26.8v2.2
		c-3.1,0-6.7,0-10.9-0.1c-4.2-0.1-6.9-0.1-8.1-0.1c-2.2,0-4.4,0-6.6,0.1C1384.6,469.3,1382.2,469.3,1379.8,469.4 M1285.5,387.3
		c2.2,0.1,4.7,0.2,7.4,0.3c2.7,0.1,4.2,0.2,4.5,0.2c31,0,51.3-2.3,60.9-7c9.6-4.7,14.4-12.7,14.4-24.2c0-10.4-4.7-18-14.2-23
		c-9.5-5-24.3-7.4-44.4-7.4c-4.5,0-9.1,0-13.7,0.1c-4.6,0.1-9.6,0.2-14.9,0.3V387.3z"/>
</g>
<g>
	<polygon class="st0" points="329.3,573.6 303.3,528.8 292.8,571.2 283,571.2 300,506.4 329.3,558 358.6,506.4 375.6,571.2 
		365.9,571.2 355.3,528.8 	"/>
	<path class="st0" d="M415,506.4l38.1,64.8h-10.8l-10.9-19.1h-32.7l-10.9,19.1H377L415,506.4z M415,522.8l-13.3,22.9h26.7L415,522.8
		z"/>
	<polygon class="st0" points="473.8,571.2 473.8,542.7 445.4,508.9 456.9,508.9 478.8,535.9 500.6,508.9 512.1,508.9 483.7,542.7 
		483.7,571.2 	"/>
	<path class="st0" d="M603.9,540.2c0,4.5-1.1,8.7-3.3,12.6c-2.2,3.9-5.4,7.4-9.7,10.5c-4.2,3.1-9.1,5.4-14.6,7.1
		c-5.5,1.7-11.2,2.5-17.1,2.5c-5.9,0-11.6-0.8-17.1-2.5c-5.5-1.7-10.3-4-14.6-7.1c-4.3-3.1-7.5-6.6-9.8-10.6
		c-2.2-3.9-3.3-8.1-3.3-12.6c0-4.5,1.1-8.7,3.3-12.6c2.2-4,5.5-7.5,9.8-10.6c4.2-3,9-5.4,14.5-7c5.5-1.6,11.2-2.5,17.1-2.5
		c6,0,11.7,0.8,17.2,2.5c5.5,1.6,10.4,4,14.6,7c4.2,3.1,7.5,6.6,9.7,10.5C602.8,531.5,603.9,535.7,603.9,540.2 M559.1,565.9
		c4.6,0,8.9-0.6,13.1-1.9c4.1-1.3,7.9-3.2,11.2-5.6c3.3-2.4,5.8-5.2,7.5-8.3c1.7-3.1,2.6-6.4,2.6-9.8c0-3.5-0.9-6.8-2.6-10
		c-1.7-3.1-4.2-5.9-7.5-8.3c-3.3-2.4-7-4.3-11.1-5.6c-4.1-1.3-8.5-1.9-13.1-1.9c-4.7,0-9.1,0.6-13.2,1.9c-4.2,1.3-7.9,3.1-11.1,5.6
		c-3.3,2.5-5.8,5.3-7.5,8.4c-1.7,3.1-2.6,6.4-2.6,9.9c0,3.5,0.8,6.7,2.5,9.8c1.7,3.1,4.2,5.8,7.5,8.3c3.4,2.5,7.1,4.4,11.2,5.7
		C550.1,565.2,554.5,565.9,559.1,565.9"/>
	<path class="st0" d="M620.2,571.2v-62.3h19.7c5.6,0,9.7,0.2,12.3,0.7c2.6,0.5,4.9,1.3,6.9,2.4c2.5,1.5,4.4,3.4,5.8,5.8
		c1.4,2.4,2.1,5.1,2.1,8.1c0,5.1-1.9,9-5.8,11.6c-3.8,2.7-9.5,4-16.9,4h-1.8l32,29.7h-12.6l-30.6-29.7h-1.4v29.7H620.2z
		 M629.9,515.1V536h7.6c7.8,0,13-0.7,15.6-2.2c2.6-1.5,3.9-4.1,3.9-7.8c0-4-1.4-6.8-4.1-8.4c-2.7-1.6-7.9-2.4-15.5-2.4H629.9z"/>
	<rect x="683" y="508.9" class="st0" width="10" height="62.3"/>
	<path class="st0" d="M743.7,536.6c5.5,1.7,9.6,4,12.3,6.9c2.8,2.9,4.1,6.3,4.1,10.2c0,5.7-2.5,10.3-7.4,13.9
		c-4.9,3.5-11.4,5.3-19.5,5.3c-6.6,0-12.1-1.3-16.6-3.8c-4.5-2.5-7.5-6.1-9-10.7l9-3.3c1.2,3.8,3.2,6.6,6,8.6
		c2.8,1.9,6.3,2.9,10.6,2.9c5,0,9-1.1,12.1-3.2c3.1-2.1,4.6-4.9,4.6-8.4c0-2.8-1.1-5.2-3.2-7.3c-2.2-2.1-5.4-3.8-9.8-5.2l-10.2-3.2
		c-5.6-1.7-9.7-4-12.4-6.7c-2.7-2.7-4.1-6-4.1-9.8c0-4.4,2.2-8.1,6.6-11c4.4-2.9,10.1-4.3,16.9-4.3c5,0,9.4,0.8,13.1,2.4
		c3.7,1.6,6.6,3.9,8.6,7l-8.2,3.9c-1.9-2.4-4-4.2-6.3-5.4c-2.3-1.2-5-1.8-7.9-1.8c-3.7,0-6.8,0.9-9.2,2.6c-2.4,1.7-3.6,3.9-3.6,6.5
		c0,2.2,0.9,4.1,2.7,5.7c1.8,1.6,4.7,3.1,8.5,4.3L743.7,536.6z"/>
	<polygon class="st0" points="788.1,571.2 788.1,515.9 764.4,515.9 764.4,508.9 821.8,508.9 821.8,515.9 798.2,515.9 798.2,571.2 	
		"/>
	<path class="st0" d="M850.8,506.4l38.1,64.8h-10.8l-10.9-19.1h-32.7l-10.9,19.1h-10.8L850.8,506.4z M850.8,522.8l-13.3,22.9h26.7
		L850.8,522.8z"/>
	<path class="st0" d="M932.2,571.2v-62.3h16.1c11.9,0,20.3,0.4,25.2,1.3c4.9,0.9,9.1,2.4,12.8,4.5c4.8,2.8,8.4,6.3,10.9,10.6
		c2.5,4.3,3.7,9.2,3.7,14.8c0,5.6-1.2,10.5-3.7,14.7c-2.5,4.3-6.1,7.8-11,10.5c-3.7,2.1-7.8,3.6-12.5,4.5c-4.7,0.9-12,1.3-21.8,1.3
		h-3.6H932.2z M942.2,564.2h6.4c10.3,0,17.4-0.3,21.4-1c4-0.7,7.3-1.8,9.9-3.4c3.4-2.1,6-4.9,7.8-8.2c1.8-3.4,2.7-7.2,2.7-11.6
		c0-4.4-0.9-8.2-2.7-11.5c-1.8-3.3-4.4-6-7.9-8.2c-2.6-1.6-6-2.8-10-3.5c-4.1-0.7-11.1-1-21.3-1h-6.4V564.2z"/>
	<polygon class="st0" points="1017.1,571.2 1017.1,508.9 1061.3,508.9 1061.3,515.7 1027.1,515.7 1027.1,533.5 1061.3,533.5 
		1061.3,540.4 1027.1,540.4 1027.1,564.3 1061.3,564.3 1061.3,571.2 	"/>
	<polygon class="st0" points="1136.7,573.6 1101.3,508.9 1112.1,508.9 1136.7,556.6 1161.2,508.9 1171.9,508.9 	"/>
	<rect x="1180.9" y="508.9" class="st0" width="10" height="62.3"/>
	<path class="st0" d="M1237.6,506.4l38.1,64.8h-10.8l-10.9-19.1h-32.7l-10.9,19.1h-10.8L1237.6,506.4z M1237.6,522.8l-13.3,22.9
		h26.7L1237.6,522.8z"/>
	<path class="st0" d="M1304.3,508.9h10.1v48.6c0,5.2-1.6,9.1-4.7,11.6c-3.1,2.5-7.9,3.8-14.3,3.8c-3.4,0-6.5-0.5-9.3-1.5
		c-2.8-1-5.4-2.6-7.8-4.7l6.6-4.9c2.1,1.6,4,2.7,5.7,3.4c1.8,0.7,3.6,1,5.5,1c3,0,5.1-0.8,6.4-2.5c1.2-1.7,1.9-5,1.9-9.9V508.9z"/>
	<polygon class="st0" points="1329.7,571.2 1329.7,508.9 1373.9,508.9 1373.9,515.7 1339.7,515.7 1339.7,533.5 1373.9,533.5 
		1373.9,540.4 1339.7,540.4 1339.7,564.3 1373.9,564.3 1373.9,571.2 	"/>
	<path class="st0" d="M1421.3,536.6c5.5,1.7,9.6,4,12.3,6.9c2.8,2.9,4.2,6.3,4.2,10.2c0,5.7-2.5,10.3-7.4,13.9
		c-4.9,3.5-11.4,5.3-19.5,5.3c-6.6,0-12.1-1.3-16.6-3.8c-4.5-2.5-7.5-6.1-9-10.7l9-3.3c1.2,3.8,3.2,6.6,6,8.6
		c2.8,1.9,6.3,2.9,10.6,2.9c5,0,9-1.1,12.1-3.2c3.1-2.1,4.6-4.9,4.6-8.4c0-2.8-1.1-5.2-3.2-7.3c-2.2-2.1-5.4-3.8-9.8-5.2l-10.2-3.2
		c-5.6-1.7-9.7-4-12.4-6.7c-2.7-2.7-4.1-6-4.1-9.8c0-4.4,2.2-8.1,6.6-11s10.1-4.3,16.9-4.3c5,0,9.4,0.8,13.1,2.4
		c3.7,1.6,6.6,3.9,8.6,7l-8.2,3.9c-1.9-2.4-4-4.2-6.3-5.4c-2.3-1.2-5-1.8-7.9-1.8c-3.7,0-6.8,0.9-9.2,2.6c-2.4,1.7-3.6,3.9-3.6,6.5
		c0,2.2,0.9,4.1,2.7,5.7c1.8,1.6,4.7,3.1,8.5,4.3L1421.3,536.6z"/>
</g>
<rect x="278.8" y="484.6" class="st0" width="1151.1" height="6.2"/>
</svg>
