<svg id="Capa_1" data-name="Capa 1" xmlns="http://www.w3.org/2000/svg" viewBox="0 0 524.26 274.86"><defs><style>.cls-1{fill: #dcaf1f;}</style></defs><title>paloma</title><path class="cls-1" d="M619,363.27c-16-14-34.34-20-55.66-15.82-.34.07-.7.11-1,.17-45.05,3.55-101.11-46.88-201.34-93.33-12-5.58-26-5.91-39.32-7.88C194.39,227.54,104.2,278.83,104.2,278.83c194.73-16.47,279.13,76.4,293.89,107.73-16.08,15.79-60.32,4.93-84.19,10.71h0c9.8,15,31.83,34.18,41.66,46.14a93.76,93.76,0,0,1,17-6.53c14.55-4.36,9.72-3.45,24.75-6a90.73,90.73,0,0,1,21.92-.64c12.3.94,24.51,3.05,36.81,4.11,17.36,1.49,34.64.49,51.4-4.56,32.09-9.68,59.18-27.95,84.48-49.2,2.4-2,5-4.43,7.84-5.17,4.13-1.07,8.64-.66,13-1.08,5.15-.5,10.28-1.19,15.42-1.81l.3-1.14C625.31,368.7,622.16,366,619,363.27Z" transform="translate(-104.2 -168.57)"/><path class="cls-1" d="M539.67,334.36c1.19.31,2.34.6,3.32.79,52.33,10.16,66.73-135.81,47.89-166.51-1.46-2.38-11.51,50.76-38.2,82.27-30.13,35.57-59.88,47.53-75.71,51.55C501,316.31,521.53,327.74,539.67,334.36Z" transform="translate(-104.2 -168.57)"/></svg>