<svg id="iconos" xmlns="http://www.w3.org/2000/svg" viewBox="0 0 140.43 141.73"><defs><style>.cls-1{fill:#ffffff;}</style></defs><title>telefono</title><path class="cls-1" d="M114.72,141.73c-8.12,0-21.8-5.1-33-10.46C56.12,119,12.09,70.63,5.46,47.52,1.52,37.25-.12,29.2.71,24.22c.26-1.55.79-4.76,20-21.42L21,2.59c2.75-2.07,9.47-4.69,15.15.19,4.63,4,15,19.85,17.06,23,.68,1.11,6,10.15,2,16.93-1.85,3.13-5.32,10-7.15,13.68,4.19,6,17.32,23.74,36.08,37.62l12.25-6.63a19.23,19.23,0,0,1,13.86-.15l1,.53,24.88,16.89c.45.38,4.42,3.87,4.78,9a11.35,11.35,0,0,1-3.12,8.5c-.92,1-2.08,2.42-3.37,4-6.69,8-11.76,13.78-16.1,15.13A12.27,12.27,0,0,1,114.72,141.73ZM9.82,26.24c-.12,1.67,0,6.85,4.39,18.14l.14.42c5.8,20.83,47.84,66.81,71.39,78.09,17.61,8.43,27.85,10.05,29.83,9.5,2.27-.9,8.88-8.82,11.71-12.2,1.37-1.64,2.6-3.11,3.58-4.2.82-.92.79-1.46.78-1.64a4.69,4.69,0,0,0-1.4-2.5l-23.67-16a10.38,10.38,0,0,0-6.29,0l-16.85,9.15-2.36-1.66c-25.77-18.17-41.67-43-42.34-44.06L37.33,57l1.15-2.34c.24-.49,5.92-12,8.68-16.71.71-1.2-.41-4.89-1.84-7.26C41,24,32.88,12.23,30.08,9.84c-1.26-1.09-2.85-.25-3.46.15C19.59,16.08,11.48,23.79,9.82,26.24Zm-.18.3h0Z" transform="translate(-0.5 0)"/></svg>