<?xml version="1.0" encoding="UTF-8" standalone="no"?>
<svg
   xmlns:dc="http://purl.org/dc/elements/1.1/"
   xmlns:cc="http://creativecommons.org/ns#"
   xmlns:rdf="http://www.w3.org/1999/02/22-rdf-syntax-ns#"
   xmlns:svg="http://www.w3.org/2000/svg"
   xmlns="http://www.w3.org/2000/svg"
   height="22.000063"
   width="22"
   version="1.1"
   viewBox="0 0 22.000001 22.000064"
   id="iconos">
  <metadata
     id="metadata61">
    <rdf:RDF>
      <cc:Work
         rdf:about="">
        <dc:format>image/svg+xml</dc:format>
        <dc:type
           rdf:resource="http://purl.org/dc/dcmitype/StillImage" />
        <dc:title>telefono</dc:title>
      </cc:Work>
    </rdf:RDF>
  </metadata>
  <defs
     id="defs52">
    <style
       id="style50">.cls-1{fill:#ffffff;}</style>
  </defs>
  <title
     id="title54">telefono</title>
  <path
     style="fill:#ffffff;stroke-width:0.15594201"
     id="path56"
     d="m 17.893972,21.999456 c -1.272098,0 -3.415239,-0.79165 -5.169857,-1.62365 C 8.7135583,18.471196 1.8157155,10.962966 0.77704419,7.3757161 c -0.61724961,-1.59417 -0.87417585,-2.84373 -0.74414611,-3.61675 0.04073221,-0.2406 0.12376325,-0.73887 3.13324672,-3.32492 l 0.045432,-0.0326 c 0.4308214,-0.32132 1.4835924,-0.72801 2.3734344,0.0295 0.7253467,0.6209 2.3499351,3.08122 2.6726595,3.57017 0.1065304,0.1723 0.9399741,1.57554 0.3133247,2.62796 -0.2898253,0.48586 -0.8334436,1.55225 -1.1201357,2.12348 0.6564152,0.93135 2.7133923,3.6850399 5.6523783,5.8395699 l 1.919113,-1.02915 a 3.0126168,2.9849767 0 0 1 2.17134,-0.0233 l 0.156663,0.0823 3.897759,2.62175 c 0.0705,0.059 0.692447,0.60072 0.748846,1.39702 a 1.7781176,1.7618037 0 0 1 -0.488787,1.31942 c -0.144129,0.15522 -0.325858,0.37564 -0.527952,0.6209 -1.048071,1.2418 -1.842349,2.139 -2.522264,2.34855 a 1.9222469,1.9046107 0 0 1 -0.563984,0.0699 z M 1.4600919,4.0725261 c -0.018799,0.25922 0,1.06329 0.6877477,2.81578 l 0.021933,0.0652 C 3.0784142,10.186846 9.664499,17.324096 13.353897,19.075026 c 2.758824,1.30855 4.363046,1.56001 4.673238,1.47464 0.355623,-0.1397 1.391161,-1.36908 1.834516,-1.89374 0.214627,-0.25457 0.407322,-0.48275 0.560851,-0.65195 0.128463,-0.14281 0.123763,-0.22663 0.122197,-0.25457 a 0.73474637,0.72800523 0 0 0 -0.219328,-0.38806 l -3.708197,-2.4836 a 1.6261551,1.6112355 0 0 0 -0.985406,0 l -2.639761,1.42031 -0.369723,-0.25768 C 8.5850951,13.219946 6.0941639,9.3657061 5.9892002,9.2011661 l -0.2193273,-0.35391 0.1801617,-0.36323 c 0.037599,-0.0761 0.927441,-1.8627 1.3598291,-2.59381 0.1112303,-0.18627 -0.064232,-0.75905 -0.2882587,-1.12693 -0.6767813,-1.03846 -1.9488795,-2.86545 -2.3875341,-3.23644 -0.1973945,-0.1692 -0.4464876,-0.0388 -0.5420517,0.0233 -1.1013362,0.94532 -2.3718678,2.14211 -2.6319273,2.52241 z m -0.028199,0.0466 z"
     class="cls-1" />
</svg>
