<?xml version="1.0" encoding="UTF-8" standalone="no"?>
<!-- Generator: Adobe Illustrator 19.0.0, SVG Export Plug-In . SVG Version: 6.00 Build 0)  -->

<svg
   xmlns:dc="http://purl.org/dc/elements/1.1/"
   xmlns:cc="http://creativecommons.org/ns#"
   xmlns:rdf="http://www.w3.org/1999/02/22-rdf-syntax-ns#"
   xmlns:svg="http://www.w3.org/2000/svg"
   xmlns="http://www.w3.org/2000/svg"
   xmlns:sodipodi="http://sodipodi.sourceforge.net/DTD/sodipodi-0.dtd"
   xmlns:inkscape="http://www.inkscape.org/namespaces/inkscape"
   version="1.1"
   id="Capa_1"
   x="0px"
   y="0px"
   viewBox="0 0 50 50"
   xml:space="preserve"
   sodipodi:docname="twitter.svg"
   width="50"
   height="50"
   inkscape:version="0.92.2 (unknown)"><metadata
     id="metadata4612"><rdf:RDF><cc:Work
         rdf:about=""><dc:format>image/svg+xml</dc:format><dc:type
           rdf:resource="http://purl.org/dc/dcmitype/StillImage" /><dc:title></dc:title></cc:Work></rdf:RDF></metadata><defs
     id="defs4610" /><sodipodi:namedview
     pagecolor="#ffffff"
     bordercolor="#666666"
     borderopacity="1"
     objecttolerance="10"
     gridtolerance="10"
     guidetolerance="10"
     inkscape:pageopacity="0"
     inkscape:pageshadow="2"
     inkscape:window-width="1533"
     inkscape:window-height="845"
     id="namedview4608"
     showgrid="false"
     fit-margin-top="0"
     fit-margin-left="0"
     fit-margin-right="0"
     fit-margin-bottom="0"
     inkscape:zoom="1.365154"
     inkscape:cx="243.196"
     inkscape:cy="243.196"
     inkscape:window-x="67"
     inkscape:window-y="27"
     inkscape:window-maximized="1"
     inkscape:current-layer="Capa_1" /><g
     id="g4575"
     transform="scale(0.10279774)"><g
       id="g4543"><path
         style="fill:#ffffff"
         d="M 243.196,0 C 108.891,0 0,108.891 0,243.196 0,377.501 108.891,486.392 243.196,486.392 377.501,486.392 486.392,377.501 486.392,243.196 486.392,108.861 377.501,0 243.196,0 Z m 120.99,188.598 0.182,7.752 c 0,79.16 -60.221,170.359 -170.359,170.359 -33.804,0 -65.268,-9.91 -91.776,-26.904 4.682,0.547 9.454,0.851 14.288,0.851 28.059,0 53.868,-9.576 74.357,-25.627 -26.204,-0.486 -48.305,-17.814 -55.935,-41.586 3.678,0.699 7.387,1.034 11.278,1.034 5.472,0 10.761,-0.699 15.777,-2.067 -27.39,-5.533 -48.031,-29.7 -48.031,-58.701 v -0.76 c 8.086,4.499 17.297,7.174 27.116,7.509 -16.051,-10.731 -26.63,-29.062 -26.63,-49.825 0,-10.974 2.949,-21.249 8.086,-30.095 29.518,36.236 73.658,60.069 123.422,62.562 -1.034,-4.378 -1.55,-8.968 -1.55,-13.649 0,-33.044 26.812,-59.857 59.887,-59.857 17.206,0 32.771,7.265 43.714,18.908 13.619,-2.706 26.448,-7.691 38.03,-14.531 -4.469,13.984 -13.953,25.718 -26.326,33.135 12.069,-1.429 23.651,-4.682 34.382,-9.424 -8.025,11.977 -18.209,22.526 -29.912,30.916 z"
         id="path4541"
         inkscape:connector-curvature="0" /></g><g
       id="g4545" /><g
       id="g4547" /><g
       id="g4549" /><g
       id="g4551" /><g
       id="g4553" /><g
       id="g4555" /><g
       id="g4557" /><g
       id="g4559" /><g
       id="g4561" /><g
       id="g4563" /><g
       id="g4565" /><g
       id="g4567" /><g
       id="g4569" /><g
       id="g4571" /><g
       id="g4573" /></g><g
     id="g4577"
     transform="scale(0.10279774)" /><g
     id="g4579"
     transform="scale(0.10279774)" /><g
     id="g4581"
     transform="scale(0.10279774)" /><g
     id="g4583"
     transform="scale(0.10279774)" /><g
     id="g4585"
     transform="scale(0.10279774)" /><g
     id="g4587"
     transform="scale(0.10279774)" /><g
     id="g4589"
     transform="scale(0.10279774)" /><g
     id="g4591"
     transform="scale(0.10279774)" /><g
     id="g4593"
     transform="scale(0.10279774)" /><g
     id="g4595"
     transform="scale(0.10279774)" /><g
     id="g4597"
     transform="scale(0.10279774)" /><g
     id="g4599"
     transform="scale(0.10279774)" /><g
     id="g4601"
     transform="scale(0.10279774)" /><g
     id="g4603"
     transform="scale(0.10279774)" /><g
     id="g4605"
     transform="scale(0.10279774)" /></svg>