<?xml version="1.0" encoding="utf-8"?>
<!-- Generator: Adobe Illustrator 21.0.0, SVG Export Plug-In . SVG Version: 6.00 Build 0)  -->
<svg version="1.1" id="Layer_1" xmlns="http://www.w3.org/2000/svg" xmlns:xlink="http://www.w3.org/1999/xlink" x="0px" y="0px"
	 viewBox="0 0 504.4 504.4" style="fill:white;" xml:space="preserve">
<g>
	<g>
		<path d="M254.8,119.4c-71.6,0-129.6,57.6-129.6,128.8c0,28,9.2,54.4,24.8,75.6l-16.4,48l50-16c20.4,13.6,45.2,21.2,71.6,21.2
			c71.6,0,130-57.6,130-128.8C384.8,177,326.4,119.4,254.8,119.4z M330.8,301.4c-3.2,8.8-18.8,17.2-25.6,18s-6.8,5.6-45.6-9.2
			c-38.4-15.2-62.8-54-64.8-56.8c-2-2.4-15.6-20.4-15.6-38.8s9.6-27.6,13.2-31.2c3.6-3.6,7.6-4.8,10-4.8s5.2,0.4,7.2,0.4
			c2.4,0,5.2-1.2,8.4,6.4c3.2,7.6,10.8,26,11.6,28s1.6,4,0.4,6.4c-1.2,2.4-2,4-3.6,6.4c-2,2-4,4.8-5.6,6.4c-2,2-4,4-1.6,7.6
			s10,16,21.2,26c14.4,12.8,26.8,16.8,30.4,18.8s6,1.6,8-0.8c2.4-2.4,9.6-10.8,12-14.8c2.4-3.6,5.2-3.2,8.4-2
			c3.6,1.2,22,10.4,26,12.4c3.6,2,6.4,2.8,7.2,4.4C333.6,285,333.6,292.6,330.8,301.4z"/>
	</g>
</g>
</svg>
