<?xml version="1.0" encoding="UTF-8" standalone="no"?>
<svg
   xmlns:dc="http://purl.org/dc/elements/1.1/"
   xmlns:cc="http://creativecommons.org/ns#"
   xmlns:rdf="http://www.w3.org/1999/02/22-rdf-syntax-ns#"
   xmlns:svg="http://www.w3.org/2000/svg"
   xmlns="http://www.w3.org/2000/svg"
   height="100"
   width="100"
   xml:space="preserve"
   viewBox="0 0 100 100"
   y="0px"
   x="0px"
   id="Layer_1"
   version="1.1"><metadata
     id="metadata57"><rdf:RDF><cc:Work
         rdf:about=""><dc:format>image/svg+xml</dc:format><dc:type
           rdf:resource="http://purl.org/dc/dcmitype/StillImage" /><dc:title></dc:title></cc:Work></rdf:RDF></metadata><defs
     id="defs55" /><style
     id="style44"
     type="text/css">
	.st0{fill:#FFFFFF;}
	.st1{fill:#55CD6C;}
	.st2{fill:#FEFEFE;}
</style><path
     style="fill:#ffffff;stroke-width:0.09765625"
     id="path46"
     d="m 24.674699,76.86747 3.447265,-12.5 c -2.236328,-3.87695 -3.447265,-8.19336 -3.447265,-12.67578 0,-13.61328 11.210938,-24.82422 24.912109,-24.82422 13.701172,0 25.087891,11.21094 25.087891,24.82422 0,13.61328 -11.376953,25.17578 -25.087891,25.17578 -4.30664,0 -8.447265,-1.37695 -12.158203,-3.44727 z"
     class="st0" /><path
     style="fill:#55cd6c;stroke-width:0.09765625"
     id="path48"
     d="m 38.121965,68.93778 0.771484,0.42969 c 3.193359,1.98242 6.894531,3.19336 10.771484,3.19336 11.289063,0 20.69336,-9.39453 20.69336,-20.85938 0,-11.46484 -9.394532,-20.52734 -20.771485,-20.52734 -11.376953,0 -20.605469,9.14063 -20.605469,20.51758 0,3.96484 1.123047,7.8418 3.19336,11.12305 l 0.517578,0.77148 -1.982422,7.24609 z"
     class="st1" /><path
     style="fill:#fefefe;stroke-width:0.09765625"
     id="path50"
     d="m 42.946183,40.13895 -1.640625,-0.0879 c -0.517578,0 -1.035156,0.17578 -1.376953,0.51758 -0.771484,0.69336 -2.070312,1.98242 -2.412109,3.71094 -0.605469,2.58789 0.341797,5.69336 2.587891,8.78906 2.246093,3.0957 6.552734,8.10547 14.140624,10.25391 2.41211,0.69336 4.306641,0.2539 5.859375,-0.69336 1.210938,-0.77149 1.982422,-1.98242 2.246094,-3.27149 l 0.253906,-1.21093 c 0.08789,-0.3418 -0.08789,-0.77149 -0.429687,-0.94727 l -5.429688,-2.5 c -0.341796,-0.17578 -0.771484,-0.0879 -1.035156,0.25391 l -2.158203,2.77343 c -0.175781,0.17579 -0.429687,0.25391 -0.693359,0.17579 -1.464844,-0.51758 -6.376953,-2.58789 -9.052735,-7.75391 -0.08789,-0.25391 -0.08789,-0.51758 0.08789,-0.69336 l 2.070312,-2.32422 c 0.175782,-0.2539 0.253907,-0.60547 0.175782,-0.85937 l -2.5,-5.60547 c -0.08789,-0.26367 -0.341797,-0.52735 -0.69336,-0.52735"
     class="st2" /></svg>