<?xml version="1.0" encoding="UTF-8" standalone="no"?>
<!-- Generator: Adobe Illustrator 21.0.0, SVG Export Plug-In . SVG Version: 6.00 Build 0)  -->

<svg
   xmlns:dc="http://purl.org/dc/elements/1.1/"
   xmlns:cc="http://creativecommons.org/ns#"
   xmlns:rdf="http://www.w3.org/1999/02/22-rdf-syntax-ns#"
   xmlns:svg="http://www.w3.org/2000/svg"
   xmlns="http://www.w3.org/2000/svg"
   xmlns:sodipodi="http://sodipodi.sourceforge.net/DTD/sodipodi-0.dtd"
   xmlns:inkscape="http://www.inkscape.org/namespaces/inkscape"
   version="1.1"
   id="Layer_1"
   x="0px"
   y="0px"
   viewBox="0 0 50.000001 50.000001"
   style="fill:#ffffff"
   xml:space="preserve"
   sodipodi:docname="whatsapp.svg"
   width="50"
   height="50"
   inkscape:version="0.92.2 (unknown)"><metadata
     id="metadata4671"><rdf:RDF><cc:Work
         rdf:about=""><dc:format>image/svg+xml</dc:format><dc:type
           rdf:resource="http://purl.org/dc/dcmitype/StillImage" /><dc:title></dc:title></cc:Work></rdf:RDF></metadata><defs
     id="defs4669" /><sodipodi:namedview
     pagecolor="#ffffff"
     bordercolor="#666666"
     borderopacity="1"
     objecttolerance="10"
     gridtolerance="10"
     guidetolerance="10"
     inkscape:pageopacity="0"
     inkscape:pageshadow="2"
     inkscape:window-width="1533"
     inkscape:window-height="845"
     id="namedview4667"
     showgrid="false"
     fit-margin-top="0"
     fit-margin-left="0"
     fit-margin-right="0"
     fit-margin-bottom="0"
     inkscape:zoom="1.3164156"
     inkscape:cx="126.99999"
     inkscape:cy="124.8"
     inkscape:window-x="67"
     inkscape:window-y="27"
     inkscape:window-maximized="1"
     inkscape:current-layer="Layer_1" /><g
     id="g4664"
     transform="matrix(0.19230769,0,0,0.19409938,-24.076923,-23.175466)"><g
       id="g4662"><path
         d="m 254.8,119.4 c -71.6,0 -129.6,57.6 -129.6,128.8 0,28 9.2,54.4 24.8,75.6 l -16.4,48 50,-16 c 20.4,13.6 45.2,21.2 71.6,21.2 71.6,0 130,-57.6 130,-128.8 C 384.8,177 326.4,119.4 254.8,119.4 Z m 76,182 c -3.2,8.8 -18.8,17.2 -25.6,18 -6.8,0.8 -6.8,5.6 -45.6,-9.2 -38.4,-15.2 -62.8,-54 -64.8,-56.8 -2,-2.4 -15.6,-20.4 -15.6,-38.8 0,-18.4 9.6,-27.6 13.2,-31.2 3.6,-3.6 7.6,-4.8 10,-4.8 2.4,0 5.2,0.4 7.2,0.4 2.4,0 5.2,-1.2 8.4,6.4 3.2,7.6 10.8,26 11.6,28 0.8,2 1.6,4 0.4,6.4 -1.2,2.4 -2,4 -3.6,6.4 -2,2 -4,4.8 -5.6,6.4 -2,2 -4,4 -1.6,7.6 2.4,3.6 10,16 21.2,26 14.4,12.8 26.8,16.8 30.4,18.8 3.6,2 6,1.6 8,-0.8 2.4,-2.4 9.6,-10.8 12,-14.8 2.4,-3.6 5.2,-3.2 8.4,-2 3.6,1.2 22,10.4 26,12.4 3.6,2 6.4,2.8 7.2,4.4 1.2,0.8 1.2,8.4 -1.6,17.2 z"
         id="path4660"
         inkscape:connector-curvature="0" /></g></g></svg>