<?xml version="1.0" encoding="UTF-8" standalone="no"?>
<!-- Generator: Adobe Illustrator 21.0.0, SVG Export Plug-In . SVG Version: 6.00 Build 0)  -->

<svg
   xmlns:dc="http://purl.org/dc/elements/1.1/"
   xmlns:cc="http://creativecommons.org/ns#"
   xmlns:rdf="http://www.w3.org/1999/02/22-rdf-syntax-ns#"
   xmlns:svg="http://www.w3.org/2000/svg"
   xmlns="http://www.w3.org/2000/svg"
   xmlns:sodipodi="http://sodipodi.sourceforge.net/DTD/sodipodi-0.dtd"
   xmlns:inkscape="http://www.inkscape.org/namespaces/inkscape"
   version="1.1"
   id="Layer_1"
   x="0px"
   y="0px"
   viewBox="0 0 50.000001 50.000001"
   style="fill:#ffffff"
   xml:space="preserve"
   sodipodi:docname="youtube.svg"
   width="50"
   height="50"
   inkscape:version="0.92.2 (unknown)"><metadata
     id="metadata4742"><rdf:RDF><cc:Work
         rdf:about=""><dc:format>image/svg+xml</dc:format><dc:type
           rdf:resource="http://purl.org/dc/dcmitype/StillImage" /><dc:title></dc:title></cc:Work></rdf:RDF></metadata><defs
     id="defs4740" /><sodipodi:namedview
     pagecolor="#ffffff"
     bordercolor="#666666"
     borderopacity="1"
     objecttolerance="10"
     gridtolerance="10"
     guidetolerance="10"
     inkscape:pageopacity="0"
     inkscape:pageshadow="2"
     inkscape:window-width="1533"
     inkscape:window-height="845"
     id="namedview4738"
     showgrid="false"
     fit-margin-top="0"
     fit-margin-left="0"
     fit-margin-right="0"
     fit-margin-bottom="0"
     inkscape:zoom="1.4011395"
     inkscape:cx="236.95"
     inkscape:cy="237.05"
     inkscape:window-x="67"
     inkscape:window-y="27"
     inkscape:window-maximized="1"
     inkscape:current-layer="Layer_1" /><style
     type="text/css"
     id="style4725">
	.st0{fill:none;}
	.st1{fill:#CC202D;}
</style><polygon
     class="st0"
     points="257.4,216.5 216.6,189.6 216.6,257.3 "
     id="polygon4727"
     transform="scale(0.10548523)"
     style="fill:none" /><polygon
     class="st1"
     points="216.6,280.1 285.3,234.9 257.4,216.5 216.6,257.3 "
     id="polygon4729"
     transform="scale(0.10548523)"
     style="fill:#cc202d" /><g
     id="g4735"
     transform="scale(0.10548523)"><path
       d="M 237,0 C 106.1,0 0,106.1 0,237 0,367.9 106.1,474 237,474 367.9,474 474,367.9 474,237 474,106.1 367.8,0 237,0 Z m 124,191.2 v 96.4 c 0,19.9 -16.1,36 -35.9,36 H 156.4 c -1.9,0 -3.8,-0.2 -5.7,-0.4 -17.2,-2.7 -30.3,-17.6 -30.3,-35.5 v -96.4 c 0,-19.9 16.1,-36 35.9,-36 h 162.3 6.4 c 19.9,0 36,16.1 36,35.9 z"
       id="path4731"
       inkscape:connector-curvature="0" /><polygon
       points="257.4,216.5 216.6,189.6 216.6,257.3 216.6,280.1 285.3,234.9 "
       id="polygon4733" /></g></svg>