<?xml version="1.0" encoding="utf-8"?>
<!-- Generator: Adobe Illustrator 21.0.0, SVG Export Plug-In . SVG Version: 6.00 Build 0)  -->
<svg version="1.1" id="Layer_1" xmlns="http://www.w3.org/2000/svg" xmlns:xlink="http://www.w3.org/1999/xlink" x="0px" y="0px"
	 viewBox="0 0 473.9 473.9" style="fill: #ffffff ;" xml:space="preserve">
<style type="text/css">
	.st0{fill:none;}
	.st1{fill:#CC202D;}
</style>
<polygon class="st0" points="216.6,257.3 257.4,216.5 216.6,189.6 "/>
<polygon class="st1" points="216.6,280.1 285.3,234.9 257.4,216.5 216.6,257.3 "/>
<g>
	<path d="M237,0C106.1,0,0,106.1,0,237s106.1,237,237,237s237-106.1,237-237S367.8,0,237,0z M361,191.2v96.4c0,19.9-16.1,36-35.9,36
		H156.4c-1.9,0-3.8-0.2-5.7-0.4c-17.2-2.7-30.3-17.6-30.3-35.5v-96.4c0-19.9,16.1-36,35.9-36h162.3h6.4
		C344.9,155.3,361,171.4,361,191.2L361,191.2z"/>
	<polygon points="216.6,189.6 216.6,257.3 216.6,280.1 285.3,234.9 257.4,216.5 	"/>
</g>
</svg>
