<svg id="iconos" xmlns="http://www.w3.org/2000/svg" viewBox="0 0 140.91 95.43"><defs><style>.cls-1{fill:white;}</style></defs><title>correo</title><path class="cls-1" d="M138.36,26.3a4.85,4.85,0,0,0-2.26-1.64,11.3,11.3,0,0,0-5.59-1.52h-118A11.45,11.45,0,0,0,1,34.59v72.56a11.45,11.45,0,0,0,11.44,11.44h118A11.45,11.45,0,0,0,142,107.14V34.59A11.38,11.38,0,0,0,138.36,26.3ZM120.15,33,71.47,65.43,21.85,33Zm10.37,75.82h-118a1.66,1.66,0,0,1-1.63-1.63V37.47l58,37.94a4.9,4.9,0,0,0,5.41,0l57.93-38.66v70.41A1.66,1.66,0,0,1,130.52,108.78Z" transform="translate(-1.04 -23.15)"/></svg>